<svg width="313" height="41" viewBox="0 0 313 41" fill="none" xmlns="http://www.w3.org/2000/svg">
<g clip-path="url(#clip0_123_145)">
<path d="M227 26.5L222.5 26.5C222.5 27.1 222.5 27.7 222.5 28.3C222.5 28.9 222.5 29.5 222.5 30.1C222.5 30 222.5 30.8 222.5 30.8C220.9 31.1 219.1 31.2 217.5 31L216.9 31L216.9 30.3C216.9 29.7 216.9 29.1 216.9 28.5C216.9 27.9 216.9 27.3 216.9 26.7C216.9 26.6 216.9 26.5 216.9 26.5L213.1 26.5L213.1 40.4L227 40.4L227 26.5Z" fill="black"/>
<path d="M216.2 33.4001C216.4 14.5001 216.4 14.5001 216.4 14.5001L216.2 6.8001L214.9 3.1001L213.1 3.1001L212.1 5.5001L212.1 8.7001L212.1 12.7001L212.1 18.3001" stroke="black" stroke-width="2" stroke-miterlimit="10"/>
<path d="M223.3 32.8C223 13.9 223 13.9 223 13.9L222.6 6.2L221.2 2.5L219.4 2.5L218.6 5L218.7 8.2L218.8 12.2L218.9 17.8" stroke="black" stroke-width="2" stroke-miterlimit="10"/>
<path d="M186.9 26.5L182.4 26.5C182.4 27.1 182.4 27.7 182.4 28.3C182.4 28.9 182.4 29.5 182.4 30.1C182.4 30 182.4 30.8 182.4 30.8C180.8 31.1 179 31.2 177.4 31L176.8 31L176.8 30.3C176.8 29.7 176.8 29.1 176.8 28.5C176.8 27.9 176.8 27.3 176.8 26.7C176.8 26.6 176.8 26.5 176.8 26.5L173 26.5L173 40.4L186.9 40.4L186.9 26.5Z" fill="black"/>
<path d="M176.1 33.4001C176.3 14.5001 176.3 14.5001 176.3 14.5001L176.1 6.8001L174.8 3.1001L173 3.1001L172 5.5001L172 8.7001L172 12.7001L172 18.3001" stroke="black" stroke-width="2" stroke-miterlimit="10"/>
<path d="M183.3 32.8C183 13.9 183 13.9 183 13.9L182.5 6.2L181.1 2.5L179.3 2.5L178.5 5L178.6 8.2L178.7 12.2L178.8 17.8" stroke="black" stroke-width="2" stroke-miterlimit="10"/>
<path d="M312.5 26.5L308 26.5C308 27.1 308 27.7 308 28.3C308 28.9 308 29.5 308 30.1C308 30 308 30.8 308 30.8C306.4 31.1 304.6 31.2 303 31L302.4 31L302.4 30.3C302.4 29.7 302.4 29.1 302.4 28.5C302.4 27.9 302.4 27.3 302.4 26.7C302.4 26.6 302.4 26.5 302.4 26.5L298.6 26.5L298.6 40.4L312.5 40.4L312.5 26.5Z" fill="black"/>
<path d="M301.7 33.4001C301.9 14.5001 301.9 14.5001 301.9 14.5001L301.7 6.8001L300.4 3.1001L298.6 3.1001L297.6 5.5001L297.6 8.7001L297.6 12.7001L297.6 18.3001" stroke="black" stroke-width="2" stroke-miterlimit="10"/>
<path d="M308.9 32.8C308.6 13.9 308.6 13.9 308.6 13.9L308.2 6.2L306.8 2.5L305 2.5L304.1 5L304.2 8.2L304.3 12.2L304.4 17.8" stroke="black" stroke-width="2" stroke-miterlimit="10"/>
<path d="M272.4 26.5L267.9 26.5C267.9 27.1 267.9 27.7 267.9 28.3C267.9 28.9 267.9 29.5 267.9 30.1C267.9 30 267.9 30.8 267.9 30.8C266.3 31.1 264.5 31.2 262.9 31L262.3 31L262.3 30.3C262.3 29.7 262.3 29.1 262.3 28.5C262.3 27.9 262.3 27.3 262.3 26.7C262.3 26.6 262.3 26.5 262.3 26.5L258.5 26.5L258.5 40.4L272.4 40.4L272.4 26.5Z" fill="black"/>
<path d="M261.6 33.4001C261.8 14.5001 261.8 14.5001 261.8 14.5001L261.6 6.8001L260.3 3.1001L258.5 3.1001L257.5 5.5001L257.5 8.7001L257.5 12.7001L257.5 18.3001" stroke="black" stroke-width="2" stroke-miterlimit="10"/>
<path d="M268.8 32.8C268.5 13.9 268.5 13.9 268.5 13.9L268.1 6.2L266.7 2.5L264.9 2.5L264 5L264.1 8.2L264.2 12.2L264.3 17.8" stroke="black" stroke-width="2" stroke-miterlimit="10"/>
<path d="M55.9 25L51.4 25C51.4 25.6 51.4 26.2 51.4 26.8C51.4 27.4 51.4 28 51.4 28.6C51.4 28.5 51.4 29.3 51.4 29.3C49.8 29.6 48 29.7 46.4 29.5L45.8 29.5L45.8 28.8C45.8 28.2 45.8 27.6 45.8 27C45.8 26.4 45.8 25.8 45.8 25.2C45.8 25.1 45.8 25 45.8 25L42 25L42 38.9L55.9 38.9L55.9 25Z" fill="black"/>
<path d="M45.1 31.9001C45.4 13.0001 45.4 13.0001 45.4 13.0001L45.2 5.3001L43.9 1.6001L42.1 1.6001L41.1 4.0001L41.1 7.2001L41.1 11.2001L41.1 16.8001" stroke="black" stroke-width="2" stroke-miterlimit="10"/>
<path d="M52.3 31.3C52 12.4 52 12.4 52 12.4L51.6 4.7L50.2 1L48.4 1L47.5 3.4L47.6 6.6L47.7 10.6L47.8 16.2" stroke="black" stroke-width="2" stroke-miterlimit="10"/>
<path d="M15.8 25L11.3 25C11.3 25.6 11.3 26.2 11.3 26.8C11.3 27.4 11.3 28 11.3 28.6C11.3 28.5 11.3 29.3 11.3 29.3C9.69999 29.6 7.89999 29.7 6.29999 29.5L5.70001 29.5L5.70001 28.8C5.70001 28.2 5.70001 27.6 5.70001 27C5.70001 26.4 5.70001 25.8 5.70001 25.2C5.70001 25.1 5.70001 25 5.70001 25L1.89999 25L1.89999 38.9L15.8 38.9L15.8 25Z" fill="black"/>
<path d="M5 31.9001C5.3 13.0001 5.29999 13.0001 5.29999 13.0001L5.10001 5.3001L3.79999 1.6001L2 1.6001L1 4.0001L1 7.2001L1 11.2001L0.999999 16.8001" stroke="black" stroke-width="2" stroke-miterlimit="10"/>
<path d="M12.2 31.3C11.9 12.4 11.9 12.4 11.9 12.4L11.5 4.7L10.1 1L8.29999 1L7.39999 3.4L7.5 6.6L7.60001 10.6L7.70001 16.2" stroke="black" stroke-width="2" stroke-miterlimit="10"/>
<path d="M141.4 25L136.9 25C136.9 25.6 136.9 26.2 136.9 26.8C136.9 27.4 136.9 28 136.9 28.6C136.9 28.5 136.9 29.3 136.9 29.3C135.3 29.6 133.5 29.7 131.9 29.5L131.3 29.5L131.3 28.8C131.3 28.2 131.3 27.6 131.3 27C131.3 26.4 131.3 25.8 131.3 25.2C131.3 25.1 131.3 25 131.3 25L127.5 25L127.5 38.9L141.4 38.9L141.4 25Z" fill="black"/>
<path d="M130.7 31.9001C130.9 13.0001 130.9 13.0001 130.9 13.0001L130.7 5.3001L129.4 1.6001L127.6 1.6001L126.6 4.0001L126.6 7.2001L126.6 11.2001L126.6 16.8001" stroke="black" stroke-width="2" stroke-miterlimit="10"/>
<path d="M137.8 31.3C137.5 12.4 137.5 12.4 137.5 12.4L137.1 4.7L135.7 1L133.9 1L133 3.4L133.1 6.6L133.2 10.6L133.3 16.2" stroke="black" stroke-width="2" stroke-miterlimit="10"/>
<path d="M101.3 25L96.8 25C96.8 25.6 96.8 26.2 96.8 26.8C96.8 27.4 96.8 28 96.8 28.6C96.8 28.5 96.8 29.3 96.8 29.3C95.2 29.6 93.4 29.7 91.8 29.5L91.2 29.5L91.2 28.8C91.2 28.2 91.2 27.6 91.2 27C91.2 26.4 91.2 25.8 91.2 25.2C91.2 25.1 91.2 25 91.2 25L87.4 25L87.4 38.9L101.3 38.9L101.3 25Z" fill="black"/>
<path d="M90.6 31.9001C90.8 13.0001 90.8 13.0001 90.8 13.0001L90.6 5.3001L89.3 1.6001L87.5 1.6001L86.5 4.0001L86.5 7.2001L86.5 11.2001L86.5 16.8001" stroke="black" stroke-width="2" stroke-miterlimit="10"/>
<path d="M97.7 31.3C97.5 12.4 97.5 12.4 97.5 12.4L97.1 4.7L95.6 1L93.8 1L92.9 3.4L93 6.6L93.1 10.6L93.2 16.2" stroke="black" stroke-width="2" stroke-miterlimit="10"/>
</g>
<defs>
<clipPath id="clip0_123_145">
<rect width="40.4" height="312.5" fill="white" transform="translate(312.5) rotate(90)"/>
</clipPath>
</defs>
</svg>
